<?xml version="1.0" standalone="no"?>
<!DOCTYPE svg PUBLIC "-//W3C//DTD SVG 20010904//EN"
 "http://www.w3.org/TR/2001/REC-SVG-20010904/DTD/svg10.dtd">
<svg version="1.0" xmlns="http://www.w3.org/2000/svg"
 width="128.000000pt" height="128.000000pt" viewBox="0 0 128.000000 128.000000"
 preserveAspectRatio="xMidYMid meet">

<g transform="translate(0.000000,128.000000) scale(0.100000,-0.100000)"
fill="#FFFFFF" stroke="none">
<path d="M502 1265 c-34 -8 -95 -30 -135 -49 -342 -166 -468 -578 -275 -904
42 -72 148 -178 220 -220 31 -18 89 -45 130 -60 63 -22 89 -26 193 -27 97 0
133 4 190 22 98 31 189 87 265 163 75 76 121 148 158 252 23 64 26 88 26 198
0 110 -3 134 -26 198 -38 106 -83 177 -164 257 -151 151 -371 215 -582 170z
m263 -130 c382 -100 513 -576 235 -855 -279 -278 -755 -147 -855 235 -69 265
98 547 366 619 72 19 181 20 254 1z"/>
<path d="M542 946 c-224 -73 -295 -363 -130 -528 69 -70 127 -93 228 -93 71 1
93 5 135 27 28 14 59 36 69 47 20 22 20 22 -22 64 -36 36 -44 40 -60 29 -78
-56 -188 -54 -256 6 -53 47 -70 154 -37 227 22 48 44 69 94 90 64 27 138 17
200 -27 16 -11 23 -8 58 30 40 43 41 44 22 64 -10 11 -40 32 -68 46 -61 31
-168 39 -233 18z"/>
</g>
</svg>
