<?xml version="1.0" encoding="UTF-8"?>
<!DOCTYPE svg PUBLIC "-//W3C//DTD SVG 1.1//EN" "http://www.w3.org/Graphics/SVG/1.1/DTD/svg11.dtd">
<svg xmlns="http://www.w3.org/2000/svg" version="1.1" width="512px" height="512px" style="shape-rendering:geometricPrecision; text-rendering:geometricPrecision; image-rendering:optimizeQuality; fill-rule:evenodd; clip-rule:evenodd" xmlns:xlink="http://www.w3.org/1999/xlink">
<g><path style="opacity:0.948" fill="#000000" d="M 217.5,-0.5 C 242.833,-0.5 268.167,-0.5 293.5,-0.5C 329.164,1.41209 364.498,6.57876 399.5,15C 417.281,19.4786 433.948,26.4786 449.5,36C 457.843,41.859 463.343,49.6923 466,59.5C 466.667,190.167 466.667,320.833 466,451.5C 463.343,461.308 457.843,469.141 449.5,475C 433.948,484.521 417.281,491.521 399.5,496C 364.479,504.291 329.146,509.458 293.5,511.5C 268.167,511.5 242.833,511.5 217.5,511.5C 181.854,509.458 146.521,504.291 111.5,496C 93.7186,491.521 77.052,484.521 61.5,475C 53.1566,469.141 47.6566,461.308 45,451.5C 44.3333,320.833 44.3333,190.167 45,59.5C 47.6566,49.6923 53.1566,41.859 61.5,36C 77.052,26.4786 93.7186,19.4786 111.5,15C 146.521,6.70872 181.854,1.54205 217.5,-0.5 Z M 222.5,18.5 C 273.236,16.4353 323.57,19.9353 373.5,29C 395.199,33.0108 415.866,40.0108 435.5,50C 450.167,59 450.167,68 435.5,77C 414.305,87.7315 391.972,95.0648 368.5,99C 301.703,110.07 234.703,111.403 167.5,103C 142.568,99.8804 118.234,94.2137 94.5,86C 54.5,71 54.5,56 94.5,41C 118.234,32.7863 142.568,27.1196 167.5,24C 185.937,21.6606 204.27,19.8272 222.5,18.5 Z M 63.5,92.5 C 88.5261,106.009 115.193,114.842 143.5,119C 218.167,130.333 292.834,130.333 367.5,119C 395.67,114.943 422.17,106.11 447,92.5C 447.667,125.5 447.667,158.5 447,191.5C 444.635,197.202 440.801,201.702 435.5,205C 414.305,215.731 391.972,223.065 368.5,227C 299.325,238.477 229.992,239.477 160.5,230C 130.714,226.472 102.381,218.138 75.5,205C 71.3333,202.167 67.8333,198.667 65,194.5C 63.5206,160.562 63.0206,126.562 63.5,92.5 Z M 63.5,220.5 C 88.5261,234.009 115.193,242.842 143.5,247C 218.167,258.333 292.834,258.333 367.5,247C 395.67,242.943 422.17,234.11 447,220.5C 447.667,253.5 447.667,286.5 447,319.5C 444.635,325.202 440.801,329.702 435.5,333C 414.305,343.731 391.972,351.065 368.5,355C 299.325,366.477 229.992,367.477 160.5,358C 130.714,354.472 102.381,346.138 75.5,333C 71.3333,330.167 67.8333,326.667 65,322.5C 63.5206,288.562 63.0206,254.562 63.5,220.5 Z M 63.5,348.5 C 88.5261,362.009 115.193,370.842 143.5,375C 218.167,386.333 292.834,386.333 367.5,375C 395.67,370.943 422.17,362.11 447,348.5C 447.667,381.5 447.667,414.5 447,447.5C 444.635,453.202 440.801,457.702 435.5,461C 414.305,471.731 391.972,479.065 368.5,483C 299.325,494.477 229.992,495.477 160.5,486C 130.714,482.472 102.381,474.138 75.5,461C 71.3333,458.167 67.8333,454.667 65,450.5C 63.5206,416.562 63.0206,382.562 63.5,348.5 Z"/></g>
<g><path style="opacity:0.888" fill="#000000" d="M 416.5,145.5 C 426.324,144.49 430.491,148.823 429,158.5C 426.367,163.732 422.201,165.565 416.5,164C 411.268,161.367 409.435,157.201 411,151.5C 412.36,148.977 414.193,146.977 416.5,145.5 Z"/></g>
<g><path style="opacity:0.888" fill="#000000" d="M 416.5,273.5 C 426.324,272.49 430.491,276.823 429,286.5C 426.367,291.732 422.201,293.565 416.5,292C 411.268,289.367 409.435,285.201 411,279.5C 412.36,276.977 414.193,274.977 416.5,273.5 Z"/></g>
<g><path style="opacity:0.888" fill="#000000" d="M 416.5,401.5 C 426.324,400.49 430.491,404.823 429,414.5C 426.367,419.732 422.201,421.565 416.5,420C 411.268,417.367 409.435,413.201 411,407.5C 412.36,404.977 414.193,402.977 416.5,401.5 Z"/></g>
</svg>
