<?xml version="1.0" encoding="UTF-8"?>
<!DOCTYPE svg PUBLIC "-//W3C//DTD SVG 1.1//EN" "http://www.w3.org/Graphics/SVG/1.1/DTD/svg11.dtd">
<svg xmlns="http://www.w3.org/2000/svg" version="1.1" width="512px" height="512px" style="shape-rendering:geometricPrecision; text-rendering:geometricPrecision; image-rendering:optimizeQuality; fill-rule:evenodd; clip-rule:evenodd" xmlns:xlink="http://www.w3.org/1999/xlink">
<g><path style="opacity:0.984" fill="#000000" d="M 94.5,15.5 C 178.834,15.3333 263.167,15.5 347.5,16C 380.639,48.1386 413.472,80.6386 446,113.5C 447.663,230.419 447.996,347.419 447,464.5C 442.833,480.667 432.667,490.833 416.5,495C 309.167,495.667 201.833,495.667 94.5,495C 78.3333,490.833 68.1667,480.667 64,464.5C 63.3333,325.167 63.3333,185.833 64,46.5C 68.3489,30.3186 78.5156,19.9852 94.5,15.5 Z M 103.5,31.5 C 180.833,31.5 258.167,31.5 335.5,31.5C 335.333,53.1692 335.5,74.8359 336,96.5C 340.167,112.667 350.333,122.833 366.5,127C 388.164,127.5 409.831,127.667 431.5,127.5C 431.667,236.834 431.5,346.167 431,455.5C 429.167,469.333 421.333,477.167 407.5,479C 304.137,479.987 200.804,479.653 97.5,478C 86.7963,474.295 80.9629,466.795 80,455.5C 79.3333,322.167 79.3333,188.833 80,55.5C 82.0121,41.6556 89.8455,33.6556 103.5,31.5 Z M 351.5,44.5 C 373.965,66.465 396.299,88.6317 418.5,111C 404.167,111.667 389.833,111.667 375.5,111C 364.205,110.037 356.705,104.204 353,93.5C 351.594,77.2095 351.094,60.8762 351.5,44.5 Z"/></g>
<g><path style="opacity:0.986" fill="#000000" d="M 115.5,111.5 C 150.168,111.333 184.835,111.5 219.5,112C 222.516,113.529 223.849,116.029 223.5,119.5C 223.849,122.971 222.516,125.471 219.5,127C 184.833,127.667 150.167,127.667 115.5,127C 112.484,125.471 111.151,122.971 111.5,119.5C 111.282,115.934 112.616,113.268 115.5,111.5 Z"/></g>
<g><path style="opacity:0.976" fill="#000000" d="M 115.5,159.5 C 134.17,159.333 152.836,159.5 171.5,160C 173.333,160.5 174.5,161.667 175,163.5C 175.667,166.167 175.667,168.833 175,171.5C 174.5,173.333 173.333,174.5 171.5,175C 152.833,175.667 134.167,175.667 115.5,175C 112.484,173.471 111.151,170.971 111.5,167.5C 111.282,163.934 112.616,161.268 115.5,159.5 Z"/></g>
<g><path style="opacity:0.993" fill="#000000" d="M 195.5,159.5 C 262.167,159.333 328.834,159.5 395.5,160C 398.516,161.529 399.849,164.029 399.5,167.5C 399.849,170.971 398.516,173.471 395.5,175C 328.833,175.667 262.167,175.667 195.5,175C 192.484,173.471 191.151,170.971 191.5,167.5C 191.282,163.934 192.616,161.268 195.5,159.5 Z"/></g>
<g><path style="opacity:0.991" fill="#000000" d="M 115.5,207.5 C 171.501,207.333 227.501,207.5 283.5,208C 286.516,209.529 287.849,212.029 287.5,215.5C 287.849,218.971 286.516,221.471 283.5,223C 227.5,223.667 171.5,223.667 115.5,223C 112.484,221.471 111.151,218.971 111.5,215.5C 111.282,211.934 112.616,209.268 115.5,207.5 Z"/></g>
<g><path style="opacity:0.984" fill="#000000" d="M 307.5,207.5 C 336.835,207.333 366.169,207.5 395.5,208C 398.516,209.529 399.849,212.029 399.5,215.5C 399.849,218.971 398.516,221.471 395.5,223C 366.167,223.667 336.833,223.667 307.5,223C 304.484,221.471 303.151,218.971 303.5,215.5C 303.282,211.934 304.616,209.268 307.5,207.5 Z"/></g>
<g><path style="opacity:0.986" fill="#000000" d="M 115.5,255.5 C 150.168,255.333 184.835,255.5 219.5,256C 222.516,257.529 223.849,260.029 223.5,263.5C 223.849,266.971 222.516,269.471 219.5,271C 184.833,271.667 150.167,271.667 115.5,271C 112.484,269.471 111.151,266.971 111.5,263.5C 111.282,259.934 112.616,257.268 115.5,255.5 Z"/></g>
<g><path style="opacity:0.99" fill="#000000" d="M 243.5,255.5 C 294.168,255.333 344.834,255.5 395.5,256C 398.516,257.529 399.849,260.029 399.5,263.5C 399.849,266.971 398.516,269.471 395.5,271C 344.833,271.667 294.167,271.667 243.5,271C 240.484,269.471 239.151,266.971 239.5,263.5C 239.282,259.934 240.616,257.268 243.5,255.5 Z"/></g>
<g><path style="opacity:0.993" fill="#000000" d="M 115.5,303.5 C 182.167,303.333 248.834,303.5 315.5,304C 318.516,305.529 319.849,308.029 319.5,311.5C 319.849,314.971 318.516,317.471 315.5,319C 248.833,319.667 182.167,319.667 115.5,319C 112.484,317.471 111.151,314.971 111.5,311.5C 111.282,307.934 112.616,305.268 115.5,303.5 Z"/></g>
<g><path style="opacity:0.976" fill="#000000" d="M 339.5,303.5 C 358.17,303.333 376.836,303.5 395.5,304C 397.333,304.5 398.5,305.667 399,307.5C 399.667,310.167 399.667,312.833 399,315.5C 398.5,317.333 397.333,318.5 395.5,319C 376.833,319.667 358.167,319.667 339.5,319C 336.484,317.471 335.151,314.971 335.5,311.5C 335.282,307.934 336.616,305.268 339.5,303.5 Z"/></g>
<g><path style="opacity:0.981" fill="#000000" d="M 115.5,351.5 C 139.502,351.333 163.502,351.5 187.5,352C 189.333,352.5 190.5,353.667 191,355.5C 191.667,358.167 191.667,360.833 191,363.5C 190.5,365.333 189.333,366.5 187.5,367C 163.5,367.667 139.5,367.667 115.5,367C 112.484,365.471 111.151,362.971 111.5,359.5C 111.282,355.934 112.616,353.268 115.5,351.5 Z"/></g>
<g><path style="opacity:0.984" fill="#000000" d="M 211.5,351.5 C 240.835,351.333 270.169,351.5 299.5,352C 302.516,353.529 303.849,356.029 303.5,359.5C 303.849,362.971 302.516,365.471 299.5,367C 270.167,367.667 240.833,367.667 211.5,367C 208.484,365.471 207.151,362.971 207.5,359.5C 207.282,355.934 208.616,353.268 211.5,351.5 Z"/></g>
<g><path style="opacity:0.981" fill="#000000" d="M 323.5,351.5 C 347.502,351.333 371.502,351.5 395.5,352C 397.333,352.5 398.5,353.667 399,355.5C 399.667,358.167 399.667,360.833 399,363.5C 398.5,365.333 397.333,366.5 395.5,367C 371.5,367.667 347.5,367.667 323.5,367C 320.484,365.471 319.151,362.971 319.5,359.5C 319.282,355.934 320.616,353.268 323.5,351.5 Z"/></g>
<g><path style="opacity:0.986" fill="#000000" d="M 115.5,399.5 C 150.168,399.333 184.835,399.5 219.5,400C 222.516,401.529 223.849,404.029 223.5,407.5C 223.849,410.971 222.516,413.471 219.5,415C 184.833,415.667 150.167,415.667 115.5,415C 112.484,413.471 111.151,410.971 111.5,407.5C 111.282,403.934 112.616,401.268 115.5,399.5 Z"/></g>
<g><path style="opacity:0.984" fill="#000000" d="M 243.5,399.5 C 272.835,399.333 302.169,399.5 331.5,400C 334.516,401.529 335.849,404.029 335.5,407.5C 335.849,410.971 334.516,413.471 331.5,415C 302.167,415.667 272.833,415.667 243.5,415C 240.484,413.471 239.151,410.971 239.5,407.5C 239.282,403.934 240.616,401.268 243.5,399.5 Z"/></g>
<g><path style="opacity:0.967" fill="#000000" d="M 355.5,399.5 C 368.837,399.333 382.171,399.5 395.5,400C 397.333,400.5 398.5,401.667 399,403.5C 399.667,406.167 399.667,408.833 399,411.5C 398.5,413.333 397.333,414.5 395.5,415C 382.167,415.667 368.833,415.667 355.5,415C 352.484,413.471 351.151,410.971 351.5,407.5C 351.282,403.934 352.616,401.268 355.5,399.5 Z"/></g>
</svg>
