<?xml version="1.0" standalone="no"?>
<!DOCTYPE svg PUBLIC "-//W3C//DTD SVG 20010904//EN"
 "http://www.w3.org/TR/2001/REC-SVG-20010904/DTD/svg10.dtd">
<svg version="1.0" xmlns="http://www.w3.org/2000/svg"
 width="512.000000pt" height="512.000000pt" viewBox="0 0 512.000000 512.000000"
 preserveAspectRatio="xMidYMid meet">

<g transform="translate(0.000000,512.000000) scale(0.100000,-0.100000)"
fill="#000000" stroke="none">
<path d="M2485 5108 c-52 -19 -2068 -1187 -2098 -1216 -16 -15 -39 -45 -50
-67 l-22 -40 0 -1225 0 -1225 22 -40 c11 -22 34 -52 50 -67 32 -31 2051 -1199
2102 -1216 45 -16 100 -15 147 2 57 20 2063 1182 2097 1214 16 15 39 45 50 67
l22 40 0 1225 0 1225 -22 42 c-13 23 -40 56 -60 73 -46 39 -2033 1187 -2087
1206 -45 16 -109 17 -151 2z"/>
</g>
</svg>
