<?xml version="1.0" encoding="UTF-8"?>
<!DOCTYPE svg PUBLIC "-//W3C//DTD SVG 1.1//EN" "http://www.w3.org/Graphics/SVG/1.1/DTD/svg11.dtd">
<svg xmlns="http://www.w3.org/2000/svg" version="1.1" width="512px" height="512px" style="shape-rendering:geometricPrecision; text-rendering:geometricPrecision; image-rendering:optimizeQuality; fill-rule:evenodd; clip-rule:evenodd" xmlns:xlink="http://www.w3.org/1999/xlink">
<g><path style="opacity:0.995" fill="#e5e4e4" d="M 232.5,-0.5 C 247.833,-0.5 263.167,-0.5 278.5,-0.5C 368.144,10.3879 435.644,54.7213 481,132.5C 497.695,163.971 507.861,197.304 511.5,232.5C 511.5,247.833 511.5,263.167 511.5,278.5C 500.612,368.144 456.279,435.644 378.5,481C 347.029,497.695 313.696,507.861 278.5,511.5C 263.167,511.5 247.833,511.5 232.5,511.5C 142.856,500.612 75.3562,456.279 30,378.5C 13.3053,347.029 3.1386,313.696 -0.5,278.5C -0.5,263.167 -0.5,247.833 -0.5,232.5C 10.3875,142.857 54.7208,75.3573 132.5,30C 163.971,13.3053 197.304,3.1386 232.5,-0.5 Z"/></g>
<g><path style="opacity:1" fill="#171d28" d="M 405.5,185.5 C 305.833,185.5 206.167,185.5 106.5,185.5C 106.5,176.5 106.5,167.5 106.5,158.5C 110.174,145.324 118.507,136.491 131.5,132C 213.833,131.333 296.167,131.333 378.5,132C 391.974,136.14 400.807,144.974 405,158.5C 405.5,167.494 405.666,176.494 405.5,185.5 Z"/></g>
<g><path style="opacity:1" fill="#f9f9f9" d="M 224.5,145.5 C 260.168,145.333 295.835,145.5 331.5,146C 340.386,150.269 342.552,156.769 338,165.5C 336.363,167.81 334.196,169.31 331.5,170C 295.167,170.667 258.833,170.667 222.5,170C 215.574,165.422 213.741,159.255 217,151.5C 219.134,148.847 221.634,146.847 224.5,145.5 Z"/></g>
<g><path style="opacity:1" fill="#f3f3f4" d="M 372.5,160.5 C 368.268,159.5 363.268,159.166 357.5,159.5C 357.5,158.5 357.5,157.5 357.5,156.5C 362.544,156.827 367.544,156.494 372.5,155.5C 372.376,154.893 372.043,154.56 371.5,154.5C 370.069,152.563 368.402,150.73 366.5,149C 367.354,147.978 368.354,147.145 369.5,146.5C 373.18,150.183 376.514,154.183 379.5,158.5C 376.858,162.775 373.525,166.442 369.5,169.5C 368.28,169.113 367.613,168.28 367.5,167C 368.985,164.683 370.652,162.516 372.5,160.5 Z"/></g>
<g><path style="opacity:1" fill="#c5c4c3" d="M 136.5,150.5 C 144.656,149.821 148.156,153.488 147,161.5C 142.333,168.167 137.667,168.167 133,161.5C 131.662,156.96 132.829,153.293 136.5,150.5 Z"/></g>
<g><path style="opacity:1" fill="#c4c3c3" d="M 159.5,150.5 C 168.56,150.046 171.727,154.046 169,162.5C 163.513,168.133 158.846,167.466 155,160.5C 154.077,156.017 155.577,152.683 159.5,150.5 Z"/></g>
<g><path style="opacity:1" fill="#c5c4c4" d="M 181.5,150.5 C 189.709,149.872 193.209,153.539 192,161.5C 187.829,167.729 183.163,168.062 178,162.5C 176.593,157.643 177.76,153.643 181.5,150.5 Z"/></g>
<g><path style="opacity:1" fill="#959595" d="M 254.5,153.5 C 255.097,152.861 255.93,152.528 257,152.5C 258.376,152.684 259.209,153.351 259.5,154.5C 258.075,152.969 257.409,153.302 257.5,155.5C 256.833,155.167 256.167,154.833 255.5,154.5C 255.5,153.833 255.167,153.5 254.5,153.5 Z"/></g>
<g><path style="opacity:1" fill="#82858b" d="M 371.5,154.5 C 372.043,154.56 372.376,154.893 372.5,155.5C 367.544,156.494 362.544,156.827 357.5,156.5C 362.167,155.833 366.833,155.167 371.5,154.5 Z"/></g>
<g><path style="opacity:1" fill="#353535" d="M 227.5,152.5 C 229.48,153.848 230.647,155.848 231,158.5C 231.876,156.275 233.043,154.275 234.5,152.5C 235.5,154.5 236.5,156.5 237.5,158.5C 238.012,156.149 239.012,154.149 240.5,152.5C 240.833,153 241.167,153.5 241.5,154C 240.241,157.542 238.908,161.042 237.5,164.5C 236.239,162.547 235.073,160.547 234,158.5C 233.457,160.631 232.624,162.631 231.5,164.5C 228.953,161.009 227.62,157.009 227.5,152.5 Z"/></g>
<g><path style="opacity:1" fill="#2a2a2a" d="M 259.5,154.5 C 259.231,156.429 259.731,158.095 261,159.5C 262.706,151.669 264.706,151.669 267,159.5C 267.346,157.782 267.846,156.115 268.5,154.5C 269.167,153.167 269.833,153.167 270.5,154.5C 269.748,158.095 268.414,161.428 266.5,164.5C 265.066,162.78 264.233,160.78 264,158.5C 262.927,160.547 261.761,162.547 260.5,164.5C 259.038,161.653 258.038,158.653 257.5,155.5C 257.409,153.302 258.075,152.969 259.5,154.5 Z"/></g>
<g><path style="opacity:1" fill="#282828" d="M 254.5,153.5 C 255.167,153.5 255.5,153.833 255.5,154.5C 254.518,157.763 253.851,161.097 253.5,164.5C 252.5,164.5 251.5,164.5 250.5,164.5C 249.501,153.836 248.501,153.836 247.5,164.5C 246.5,164.5 245.5,164.5 244.5,164.5C 244.218,161.09 243.551,157.757 242.5,154.5C 243.167,153.167 243.833,153.167 244.5,154.5C 245.733,162.181 246.733,161.848 247.5,153.5C 248.675,153.281 249.675,153.614 250.5,154.5C 251.189,156.444 251.689,158.444 252,160.5C 252.39,157.896 253.224,155.562 254.5,153.5 Z"/></g>
<g><path style="opacity:1" fill="#8f9297" d="M 357.5,156.5 C 357.5,157.5 357.5,158.5 357.5,159.5C 363.268,159.166 368.268,159.5 372.5,160.5C 367.167,160.5 361.833,160.5 356.5,160.5C 356.232,158.901 356.566,157.568 357.5,156.5 Z"/></g>
<g><path style="opacity:1" fill="#2b2b2b" d="M 271.5,161.5 C 273.76,162.238 273.927,163.238 272,164.5C 270.272,163.648 270.105,162.648 271.5,161.5 Z"/></g>
<g><path style="opacity:1" fill="#232832" d="M 106.5,158.5 C 106.5,167.5 106.5,176.5 106.5,185.5C 206.167,185.5 305.833,185.5 405.5,185.5C 405.5,185.833 405.5,186.167 405.5,186.5C 305.5,186.5 205.5,186.5 105.5,186.5C 105.173,176.985 105.506,167.652 106.5,158.5 Z"/></g>
<g><path style="opacity:1" fill="#fefefe" d="M 105.5,186.5 C 205.5,186.5 305.5,186.5 405.5,186.5C 405.667,241.168 405.5,295.834 405,350.5C 401.701,365.133 392.868,374.633 378.5,379C 296.833,379.667 215.167,379.667 133.5,379C 119.021,375.188 109.855,366.021 106,351.5C 105.5,296.501 105.333,241.501 105.5,186.5 Z"/></g>
<g><path style="opacity:1" fill="#666666" d="M 151.5,255.5 C 156.167,255.5 160.833,255.5 165.5,255.5C 169.657,269.795 173.657,284.129 177.5,298.5C 174.167,298.5 170.833,298.5 167.5,298.5C 166.699,294.765 165.699,291.099 164.5,287.5C 160.167,287.5 155.833,287.5 151.5,287.5C 150.833,291.167 150.167,294.833 149.5,298.5C 146.167,298.5 142.833,298.5 139.5,298.5C 143.092,284.057 147.092,269.724 151.5,255.5 Z"/></g>
<g><path style="opacity:1" fill="#676767" d="M 194.5,254.5 C 199.636,254.292 204.636,254.959 209.5,256.5C 209.167,259.167 208.833,261.833 208.5,264.5C 204.289,262.922 199.956,262.422 195.5,263C 192.141,265.034 191.808,267.368 194.5,270C 200.219,272.275 205.385,275.442 210,279.5C 213.67,289.806 210.17,296.306 199.5,299C 193.958,299.913 188.625,299.246 183.5,297C 183.043,296.586 182.709,296.086 182.5,295.5C 183.06,293.146 183.727,290.813 184.5,288.5C 189.898,291.867 195.398,292.2 201,289.5C 201.808,287.421 201.641,285.421 200.5,283.5C 196.198,281.349 191.864,279.182 187.5,277C 183.224,272.108 182.39,266.608 185,260.5C 187.843,257.837 191.009,255.837 194.5,254.5 Z"/></g>
<g><path style="opacity:1" fill="#676767" d="M 218.5,255.5 C 225.508,255.334 232.508,255.5 239.5,256C 250.394,261.177 252.394,268.844 245.5,279C 240.372,282.43 234.705,283.93 228.5,283.5C 228.5,288.5 228.5,293.5 228.5,298.5C 225.167,298.5 221.833,298.5 218.5,298.5C 218.5,284.167 218.5,269.833 218.5,255.5 Z"/></g>
<g><path style="opacity:1" fill="#656565" d="M 273.5,269.5 C 273.217,268.711 272.717,268.044 272,267.5C 271.5,277.828 271.334,288.161 271.5,298.5C 268.833,298.5 266.167,298.5 263.5,298.5C 263.5,284.167 263.5,269.833 263.5,255.5C 267.437,255.207 271.27,255.54 275,256.5C 280.781,265.727 285.781,275.394 290,285.5C 289.705,275.526 289.538,265.526 289.5,255.5C 292.5,255.5 295.5,255.5 298.5,255.5C 298.5,269.833 298.5,284.167 298.5,298.5C 294.894,298.789 291.394,298.456 288,297.5C 282.503,288.505 277.67,279.172 273.5,269.5 Z"/></g>
<g><path style="opacity:1" fill="#656565" d="M 307.5,255.5 C 316.167,255.5 324.833,255.5 333.5,255.5C 333.5,258.167 333.5,260.833 333.5,263.5C 328.167,263.5 322.833,263.5 317.5,263.5C 317.5,266.5 317.5,269.5 317.5,272.5C 322.5,272.5 327.5,272.5 332.5,272.5C 332.5,275.167 332.5,277.833 332.5,280.5C 327.5,280.5 322.5,280.5 317.5,280.5C 317.5,283.833 317.5,287.167 317.5,290.5C 323.167,290.5 328.833,290.5 334.5,290.5C 334.5,293.167 334.5,295.833 334.5,298.5C 325.5,298.5 316.5,298.5 307.5,298.5C 307.5,284.167 307.5,269.833 307.5,255.5 Z"/></g>
<g><path style="opacity:1" fill="#636363" d="M 338.5,255.5 C 349.5,255.5 360.5,255.5 371.5,255.5C 371.5,258.167 371.5,260.833 371.5,263.5C 367.5,263.5 363.5,263.5 359.5,263.5C 359.5,275.167 359.5,286.833 359.5,298.5C 356.5,298.5 353.5,298.5 350.5,298.5C 350.5,286.833 350.5,275.167 350.5,263.5C 346.5,263.5 342.5,263.5 338.5,263.5C 338.5,260.833 338.5,258.167 338.5,255.5 Z"/></g>
<g><path style="opacity:1" fill="#fcfcfc" d="M 228.5,262.5 C 231.607,262.351 234.607,262.851 237.5,264C 241.361,272.671 238.361,276.505 228.5,275.5C 228.5,271.167 228.5,266.833 228.5,262.5 Z"/></g>
<g><path style="opacity:1" fill="#f0f0f0" d="M 157.5,263.5 C 160.142,268.771 161.809,274.437 162.5,280.5C 159.5,280.5 156.5,280.5 153.5,280.5C 155.127,274.909 156.46,269.242 157.5,263.5 Z"/></g>
<g><path style="opacity:1" fill="#ababab" d="M 273.5,269.5 C 272.833,279.167 272.167,288.833 271.5,298.5C 271.334,288.161 271.5,277.828 272,267.5C 272.717,268.044 273.217,268.711 273.5,269.5 Z"/></g>
<g><path style="opacity:1" fill="#686868" d="M 248.5,287.5 C 255.162,286.997 257.662,289.997 256,296.5C 252.157,300.729 248.823,300.395 246,295.5C 245.018,292.225 245.851,289.559 248.5,287.5 Z"/></g>
</svg>
