<?xml version="1.0" encoding="UTF-8"?>
<!DOCTYPE svg PUBLIC "-//W3C//DTD SVG 1.1//EN" "http://www.w3.org/Graphics/SVG/1.1/DTD/svg11.dtd">
<svg xmlns="http://www.w3.org/2000/svg" version="1.1" width="512px" height="512px" style="shape-rendering:geometricPrecision; text-rendering:geometricPrecision; image-rendering:optimizeQuality; fill-rule:evenodd; clip-rule:evenodd" xmlns:xlink="http://www.w3.org/1999/xlink">
<g><path style="opacity:0.988" fill="#000000" d="M 225.5,-0.5 C 247.833,-0.5 270.167,-0.5 292.5,-0.5C 339.431,1.78633 385.098,10.953 429.5,27C 443.009,32.9135 455.342,40.5802 466.5,50C 469.719,53.5518 472.552,57.3851 475,61.5C 476.411,65.7199 477.244,70.0533 477.5,74.5C 465.855,150.703 453.022,226.703 439,302.5C 432.11,316.39 421.61,326.556 407.5,333C 360.193,356.749 310.026,367.915 257,366.5C 215.046,366.888 174.213,360.388 134.5,347C 113.878,339.612 95.3784,328.779 79,314.5C 73.7267,307.357 70.3934,299.357 69,290.5C 55.8739,218.204 44.0405,145.704 33.5,73C 36.7654,56.7301 45.7654,44.7301 60.5,37C 87.1358,23.672 115.136,14.3386 144.5,9C 171.486,4.41725 198.486,1.25058 225.5,-0.5 Z M 226.5,35.5 C 272.241,33.7886 317.575,37.2886 362.5,46C 377.172,49.1615 389.506,56.1615 399.5,67C 383.118,79.8008 364.451,87.1341 343.5,89C 280.736,98.1429 218.069,97.4762 155.5,87C 139.272,83.5489 124.605,76.8822 111.5,67C 117.429,59.0829 125.096,53.4163 134.5,50C 140.632,47.5735 146.966,45.9068 153.5,45C 177.822,40.5854 202.156,37.4188 226.5,35.5 Z M 243.5,176.5 C 278.457,174.387 303.957,188.72 320,219.5C 331.105,254.519 321.938,283.019 292.5,305C 259.287,322.877 229.453,318.377 203,291.5C 180.186,261.29 180.186,230.957 203,200.5C 214.223,188.479 227.723,180.479 243.5,176.5 Z"/></g>
<g><path style="opacity:0.967" fill="#000000" d="M 248.5,210.5 C 264.202,208.607 276.702,213.941 286,226.5C 297.847,254.984 289.013,273.484 259.5,282C 235.438,281.939 222.105,269.939 219.5,246C 220.633,227.046 230.3,215.213 248.5,210.5 Z"/></g>
<g><path style="opacity:0.985" fill="#000000" d="M 283.5,511.5 C 268.167,511.5 252.833,511.5 237.5,511.5C 213.982,509.685 190.649,505.852 167.5,500C 147.044,494.693 129.21,484.86 114,470.5C 110.837,466.844 108.171,462.844 106,458.5C 98.2624,427.151 92.5957,395.484 89,363.5C 90.5685,360.872 92.9019,359.205 96,358.5C 172.341,405.284 253.841,416.784 340.5,393C 366.519,385.155 390.853,373.822 413.5,359C 417.182,358.759 420.016,360.259 422,363.5C 422.667,367.833 422.667,372.167 422,376.5C 416.768,398.992 412.435,421.659 409,444.5C 405.159,460.312 396.659,472.812 383.5,482C 352.065,498.649 318.732,508.482 283.5,511.5 Z"/></g>
</svg>
