<?xml version="1.0" standalone="no"?>
<!DOCTYPE svg PUBLIC "-//W3C//DTD SVG 20010904//EN"
 "http://www.w3.org/TR/2001/REC-SVG-20010904/DTD/svg10.dtd">
<svg version="1.0" xmlns="http://www.w3.org/2000/svg"
 width="512.000000pt" height="512.000000pt" viewBox="0 0 512.000000 512.000000"
 preserveAspectRatio="xMidYMid meet">

<g transform="translate(0.000000,512.000000) scale(0.100000,-0.100000)"
fill="#000000" stroke="none">
<path d="M374 5105 c-34 -7 -85 -25 -115 -40 -69 -35 -169 -135 -203 -204 -58
-114 -56 -2 -56 -2301 0 -2299 -2 -2187 56 -2301 34 -69 134 -169 203 -203
104 -53 136 -56 764 -56 l577 0 0 160 0 160 -589 2 c-578 3 -590 3 -617 24
-15 11 -37 33 -48 48 l-21 27 0 2139 0 2139 21 27 c11 15 33 37 48 48 27 21
33 21 1256 24 l1229 2 3 -357 3 -358 26 -56 c33 -71 87 -125 158 -158 l56 -26
358 -3 357 -3 0 -239 0 -240 160 0 160 0 0 335 c0 266 -3 342 -14 368 -18 41
-1012 1033 -1049 1047 -46 16 -2644 12 -2723 -5z"/>
<path d="M1461 2545 c-178 -39 -348 -172 -429 -336 -62 -125 -72 -185 -72
-449 0 -264 10 -324 72 -449 103 -210 332 -351 568 -351 236 0 465 141 568
351 41 83 71 191 72 257 l0 32 -159 0 -159 0 -6 -43 c-9 -61 -48 -138 -91
-182 -122 -121 -328 -121 -450 0 -21 21 -49 63 -64 94 -26 55 -26 58 -26 291
0 233 0 236 26 291 94 201 358 249 514 94 43 -44 82 -121 91 -182 l6 -43 159
0 159 0 0 33 c-1 65 -31 173 -72 256 -126 256 -423 397 -707 336z"/>
<path d="M2774 2545 c-89 -19 -160 -59 -231 -131 -144 -144 -180 -354 -93
-542 52 -111 173 -214 295 -252 24 -8 135 -15 277 -19 218 -6 239 -8 264 -27
53 -39 69 -71 69 -134 0 -63 -16 -95 -69 -134 -25 -19 -44 -21 -224 -24 -122
-2 -211 1 -234 7 -45 14 -95 69 -104 116 l-6 35 -159 0 c-182 0 -168 9 -145
-101 20 -94 59 -164 130 -235 119 -119 205 -144 496 -144 292 0 377 25 497
146 144 144 180 354 93 542 -52 111 -173 214 -295 252 -24 8 -135 15 -277 19
-259 7 -262 7 -312 75 -29 39 -29 133 0 172 49 67 57 69 272 72 122 2 211 -1
234 -7 45 -14 95 -69 104 -116 l6 -35 159 0 c182 0 168 -9 145 101 -20 94 -59
164 -130 235 -71 71 -141 110 -235 130 -87 18 -441 18 -527 -1z"/>
<path d="M4214 2545 c-89 -19 -160 -59 -231 -131 -144 -144 -180 -354 -93
-542 52 -111 173 -214 295 -252 24 -8 135 -15 277 -19 218 -6 239 -8 264 -27
53 -39 69 -71 69 -134 0 -63 -16 -95 -69 -134 -25 -19 -44 -21 -224 -24 -122
-2 -211 1 -234 7 -45 14 -95 69 -104 116 l-6 35 -159 0 c-182 0 -168 9 -145
-101 20 -94 59 -164 130 -235 119 -119 205 -144 496 -144 292 0 377 25 497
146 144 144 180 354 93 542 -52 111 -173 214 -295 252 -24 8 -135 15 -277 19
-259 7 -262 7 -312 75 -29 39 -29 133 0 172 49 67 57 69 272 72 122 2 211 -1
234 -7 45 -14 95 -69 104 -116 l6 -35 159 0 c182 0 168 -9 145 101 -20 94 -59
164 -130 235 -71 71 -141 110 -235 130 -87 18 -441 18 -527 -1z"/>
</g>
</svg>
