<?xml version="1.0" encoding="UTF-8"?>
<!DOCTYPE svg PUBLIC "-//W3C//DTD SVG 1.1//EN" "http://www.w3.org/Graphics/SVG/1.1/DTD/svg11.dtd">
<svg xmlns="http://www.w3.org/2000/svg" version="1.1" width="512px" height="512px" style="shape-rendering:geometricPrecision; text-rendering:geometricPrecision; image-rendering:optimizeQuality; fill-rule:evenodd; clip-rule:evenodd" xmlns:xlink="http://www.w3.org/1999/xlink">
<g><path style="opacity:0.971" fill="#000000" d="M 32.5,15.5 C 134.223,15.0067 235.89,15.5067 337.5,17C 344.149,20.3141 348.649,25.4808 351,32.5C 351.667,58.5 351.667,84.5 351,110.5C 345.252,124.628 334.752,130.295 319.5,127.5C 319.5,132.833 319.5,138.167 319.5,143.5C 333.716,140.776 344.05,145.776 350.5,158.5C 385.772,159.141 420.438,163.974 454.5,173C 463.951,176.037 472.951,180.037 481.5,185C 487.859,189.021 492.359,194.521 495,201.5C 495.667,285.5 495.667,369.5 495,453.5C 491.25,462.251 485.084,468.751 476.5,473C 451.665,484.042 425.665,490.709 398.5,493C 359.13,496.58 319.796,496.247 280.5,492C 257.666,489.458 235.666,483.792 214.5,475C 206.399,471.038 199.566,465.538 194,458.5C 193.138,456.913 192.471,455.246 192,453.5C 191.5,430.169 191.333,406.836 191.5,383.5C 138.499,383.667 85.499,383.5 32.5,383C 24.3333,380.167 18.8333,374.667 16,366.5C 15.3333,340.5 15.3333,314.5 16,288.5C 21.7476,274.372 32.2476,268.705 47.5,271.5C 47.5,266.167 47.5,260.833 47.5,255.5C 32.2476,258.295 21.7476,252.628 16,238.5C 15.3333,212.5 15.3333,186.5 16,160.5C 21.7476,146.372 32.2476,140.705 47.5,143.5C 47.5,138.167 47.5,132.833 47.5,127.5C 32.2476,130.295 21.7476,124.628 16,110.5C 15.3333,84.5 15.3333,58.5 16,32.5C 19.0191,24.3156 24.5191,18.649 32.5,15.5 Z M 39.5,31.5 C 135.501,31.3333 231.501,31.5 327.5,32C 332,32.5 334.5,35 335,39.5C 335.667,60.8333 335.667,82.1667 335,103.5C 334.5,108 332,110.5 327.5,111C 231.5,111.667 135.5,111.667 39.5,111C 35,110.5 32.5,108 32,103.5C 31.3333,82.1667 31.3333,60.8333 32,39.5C 32.6804,34.9895 35.1804,32.3228 39.5,31.5 Z M 63.5,63.5 C 68.8333,63.5 74.1667,63.5 79.5,63.5C 79.5,68.8333 79.5,74.1667 79.5,79.5C 74.1667,79.5 68.8333,79.5 63.5,79.5C 63.5,74.1667 63.5,68.8333 63.5,63.5 Z M 127.5,63.5 C 132.833,63.5 138.167,63.5 143.5,63.5C 143.5,68.8333 143.5,74.1667 143.5,79.5C 138.167,79.5 132.833,79.5 127.5,79.5C 127.5,74.1667 127.5,68.8333 127.5,63.5 Z M 63.5,127.5 C 74.1667,127.5 84.8333,127.5 95.5,127.5C 95.5,132.833 95.5,138.167 95.5,143.5C 84.8333,143.5 74.1667,143.5 63.5,143.5C 63.5,138.167 63.5,132.833 63.5,127.5 Z M 111.5,127.5 C 159.5,127.5 207.5,127.5 255.5,127.5C 255.5,132.833 255.5,138.167 255.5,143.5C 207.5,143.5 159.5,143.5 111.5,143.5C 111.5,138.167 111.5,132.833 111.5,127.5 Z M 271.5,127.5 C 282.167,127.5 292.833,127.5 303.5,127.5C 303.5,132.833 303.5,138.167 303.5,143.5C 292.833,143.5 282.167,143.5 271.5,143.5C 271.5,138.167 271.5,132.833 271.5,127.5 Z M 39.5,159.5 C 130.501,159.333 221.501,159.5 312.5,160C 284.257,161.318 256.591,165.985 229.5,174C 216.544,177.557 205.377,184.057 196,193.5C 194.139,195.888 192.806,198.554 192,201.5C 191.5,214.162 191.333,226.829 191.5,239.5C 140.832,239.667 90.1656,239.5 39.5,239C 35,238.5 32.5,236 32,231.5C 31.3333,210.167 31.3333,188.833 32,167.5C 32.6804,162.989 35.1804,160.323 39.5,159.5 Z M 341.5,175.5 C 370.755,175.661 399.755,178.494 428.5,184C 444.824,187.107 460.158,192.773 474.5,201C 480.223,207.134 479.223,212.134 471.5,216C 452.85,225.247 433.183,231.247 412.5,234C 361.035,241.396 309.701,240.396 258.5,231C 243.459,227.986 229.125,222.986 215.5,216C 207.777,212.134 206.777,207.134 212.5,201C 229.967,191.288 248.634,184.955 268.5,182C 292.841,178.168 317.175,176.001 341.5,175.5 Z M 63.5,191.5 C 68.8333,191.5 74.1667,191.5 79.5,191.5C 79.5,196.833 79.5,202.167 79.5,207.5C 74.1667,207.5 68.8333,207.5 63.5,207.5C 63.5,202.167 63.5,196.833 63.5,191.5 Z M 127.5,191.5 C 132.833,191.5 138.167,191.5 143.5,191.5C 143.5,196.833 143.5,202.167 143.5,207.5C 138.167,207.5 132.833,207.5 127.5,207.5C 127.5,202.167 127.5,196.833 127.5,191.5 Z M 207.5,231.5 C 236.396,244.516 266.73,252.016 298.5,254C 348.74,258.711 398.407,255.378 447.5,244C 458.286,240.94 468.619,236.773 478.5,231.5C 479.666,250.158 479.833,268.824 479,287.5C 477.558,291.275 475.058,294.108 471.5,296C 452.85,305.247 433.183,311.247 412.5,314C 361.035,321.396 309.701,320.396 258.5,311C 243.459,307.986 229.125,302.986 215.5,296C 211.942,294.108 209.442,291.275 208,287.5C 207.5,268.836 207.333,250.17 207.5,231.5 Z M 63.5,255.5 C 74.1667,255.5 84.8333,255.5 95.5,255.5C 95.5,260.833 95.5,266.167 95.5,271.5C 84.8333,271.5 74.1667,271.5 63.5,271.5C 63.5,266.167 63.5,260.833 63.5,255.5 Z M 111.5,255.5 C 138.167,255.5 164.833,255.5 191.5,255.5C 191.5,260.833 191.5,266.167 191.5,271.5C 164.833,271.5 138.167,271.5 111.5,271.5C 111.5,266.167 111.5,260.833 111.5,255.5 Z M 39.5,287.5 C 90.1667,287.5 140.833,287.5 191.5,287.5C 191.5,314.167 191.5,340.833 191.5,367.5C 140.832,367.667 90.1656,367.5 39.5,367C 35,366.5 32.5,364 32,359.5C 31.3333,338.167 31.3333,316.833 32,295.5C 32.6804,290.989 35.1804,288.323 39.5,287.5 Z M 207.5,311.5 C 236.396,324.516 266.73,332.016 298.5,334C 348.74,338.711 398.407,335.378 447.5,324C 458.286,320.94 468.619,316.773 478.5,311.5C 479.666,330.158 479.833,348.824 479,367.5C 477.558,371.275 475.058,374.108 471.5,376C 452.85,385.247 433.183,391.247 412.5,394C 361.035,401.396 309.701,400.396 258.5,391C 243.459,387.986 229.125,382.986 215.5,376C 211.942,374.108 209.442,371.275 208,367.5C 207.5,348.836 207.333,330.17 207.5,311.5 Z M 63.5,319.5 C 68.8333,319.5 74.1667,319.5 79.5,319.5C 79.5,324.833 79.5,330.167 79.5,335.5C 74.1667,335.5 68.8333,335.5 63.5,335.5C 63.5,330.167 63.5,324.833 63.5,319.5 Z M 127.5,319.5 C 132.833,319.5 138.167,319.5 143.5,319.5C 143.5,324.833 143.5,330.167 143.5,335.5C 138.167,335.5 132.833,335.5 127.5,335.5C 127.5,330.167 127.5,324.833 127.5,319.5 Z M 207.5,391.5 C 236.396,404.516 266.73,412.016 298.5,414C 348.74,418.711 398.407,415.378 447.5,404C 458.286,400.94 468.619,396.773 478.5,391.5C 479.666,410.158 479.833,428.824 479,447.5C 477.558,451.275 475.058,454.108 471.5,456C 452.85,465.247 433.183,471.247 412.5,474C 361.035,481.396 309.701,480.396 258.5,471C 243.459,467.986 229.125,462.986 215.5,456C 211.942,454.108 209.442,451.275 208,447.5C 207.5,428.836 207.333,410.17 207.5,391.5 Z"/></g>
<g><path style="opacity:0.988" fill="#000000" d="M 51.5,47.5 C 64.8375,47.3334 78.1708,47.5001 91.5,48C 92.4162,48.3742 93.2496,48.8742 94,49.5C 95.1333,56.733 95.6333,64.0664 95.5,71.5C 101.167,93.1667 93.1667,101.167 71.5,95.5C 64.8333,95.3333 58.1667,95.1667 51.5,95C 50.5838,94.6258 49.7504,94.1258 49,93.5C 47.3691,79.5941 47.0358,65.5941 48,51.5C 48.6897,49.6498 49.8564,48.3164 51.5,47.5 Z M 63.5,63.5 C 63.5,68.8333 63.5,74.1667 63.5,79.5C 68.8333,79.5 74.1667,79.5 79.5,79.5C 79.5,74.1667 79.5,68.8333 79.5,63.5C 74.1667,63.5 68.8333,63.5 63.5,63.5 Z"/></g>
<g><path style="opacity:0.988" fill="#000000" d="M 115.5,47.5 C 128.837,47.3334 142.171,47.5001 155.5,48C 156.416,48.3742 157.25,48.8742 158,49.5C 159.133,56.733 159.633,64.0664 159.5,71.5C 165.167,93.1667 157.167,101.167 135.5,95.5C 128.833,95.3333 122.167,95.1667 115.5,95C 114.584,94.6258 113.75,94.1258 113,93.5C 111.369,79.5941 111.036,65.5941 112,51.5C 112.69,49.6498 113.856,48.3164 115.5,47.5 Z M 127.5,63.5 C 127.5,68.8333 127.5,74.1667 127.5,79.5C 132.833,79.5 138.167,79.5 143.5,79.5C 143.5,74.1667 143.5,68.8333 143.5,63.5C 138.167,63.5 132.833,63.5 127.5,63.5 Z"/></g>
<g><path style="opacity:1" fill="#000000" d="M 175.5,47.5 C 212.833,47.5 250.167,47.5 287.5,47.5C 287.5,52.8333 287.5,58.1667 287.5,63.5C 250.167,63.5 212.833,63.5 175.5,63.5C 175.5,58.1667 175.5,52.8333 175.5,47.5 Z"/></g>
<g><path style="opacity:1" fill="#000000" d="M 303.5,47.5 C 308.833,47.5 314.167,47.5 319.5,47.5C 319.5,52.8333 319.5,58.1667 319.5,63.5C 314.167,63.5 308.833,63.5 303.5,63.5C 303.5,58.1667 303.5,52.8333 303.5,47.5 Z"/></g>
<g><path style="opacity:1" fill="#000000" d="M 175.5,79.5 C 212.833,79.5 250.167,79.5 287.5,79.5C 287.5,84.8333 287.5,90.1667 287.5,95.5C 250.167,95.5 212.833,95.5 175.5,95.5C 175.5,90.1667 175.5,84.8333 175.5,79.5 Z"/></g>
<g><path style="opacity:1" fill="#000000" d="M 303.5,79.5 C 308.833,79.5 314.167,79.5 319.5,79.5C 319.5,84.8333 319.5,90.1667 319.5,95.5C 314.167,95.5 308.833,95.5 303.5,95.5C 303.5,90.1667 303.5,84.8333 303.5,79.5 Z"/></g>
<g><path style="opacity:0.988" fill="#000000" d="M 51.5,175.5 C 64.8375,175.333 78.1708,175.5 91.5,176C 92.4162,176.374 93.2496,176.874 94,177.5C 95.1333,184.733 95.6333,192.066 95.5,199.5C 101.167,221.167 93.1667,229.167 71.5,223.5C 64.8333,223.333 58.1667,223.167 51.5,223C 50.5838,222.626 49.7504,222.126 49,221.5C 47.3691,207.594 47.0358,193.594 48,179.5C 48.6897,177.65 49.8564,176.316 51.5,175.5 Z M 63.5,191.5 C 63.5,196.833 63.5,202.167 63.5,207.5C 68.8333,207.5 74.1667,207.5 79.5,207.5C 79.5,202.167 79.5,196.833 79.5,191.5C 74.1667,191.5 68.8333,191.5 63.5,191.5 Z"/></g>
<g><path style="opacity:0.988" fill="#000000" d="M 115.5,175.5 C 128.837,175.333 142.171,175.5 155.5,176C 156.416,176.374 157.25,176.874 158,177.5C 159.133,184.733 159.633,192.066 159.5,199.5C 165.167,221.167 157.167,229.167 135.5,223.5C 128.833,223.333 122.167,223.167 115.5,223C 114.584,222.626 113.75,222.126 113,221.5C 111.369,207.594 111.036,193.594 112,179.5C 112.69,177.65 113.856,176.316 115.5,175.5 Z M 127.5,191.5 C 127.5,196.833 127.5,202.167 127.5,207.5C 132.833,207.5 138.167,207.5 143.5,207.5C 143.5,202.167 143.5,196.833 143.5,191.5C 138.167,191.5 132.833,191.5 127.5,191.5 Z"/></g>
<g><path style="opacity:1" fill="#000000" d="M 335.5,279.5 C 340.833,279.5 346.167,279.5 351.5,279.5C 351.5,284.833 351.5,290.167 351.5,295.5C 346.167,295.5 340.833,295.5 335.5,295.5C 335.5,290.167 335.5,284.833 335.5,279.5 Z"/></g>
<g><path style="opacity:0.988" fill="#000000" d="M 51.5,303.5 C 64.8375,303.333 78.1708,303.5 91.5,304C 92.4162,304.374 93.2496,304.874 94,305.5C 95.1333,312.733 95.6333,320.066 95.5,327.5C 101.167,349.167 93.1667,357.167 71.5,351.5C 64.8333,351.333 58.1667,351.167 51.5,351C 50.5838,350.626 49.7504,350.126 49,349.5C 47.3691,335.594 47.0358,321.594 48,307.5C 48.6897,305.65 49.8564,304.316 51.5,303.5 Z M 63.5,319.5 C 63.5,324.833 63.5,330.167 63.5,335.5C 68.8333,335.5 74.1667,335.5 79.5,335.5C 79.5,330.167 79.5,324.833 79.5,319.5C 74.1667,319.5 68.8333,319.5 63.5,319.5 Z"/></g>
<g><path style="opacity:0.988" fill="#000000" d="M 115.5,303.5 C 128.837,303.333 142.171,303.5 155.5,304C 156.416,304.374 157.25,304.874 158,305.5C 159.133,312.733 159.633,320.066 159.5,327.5C 165.167,349.167 157.167,357.167 135.5,351.5C 128.833,351.333 122.167,351.167 115.5,351C 114.584,350.626 113.75,350.126 113,349.5C 111.369,335.594 111.036,321.594 112,307.5C 112.69,305.65 113.856,304.316 115.5,303.5 Z M 127.5,319.5 C 127.5,324.833 127.5,330.167 127.5,335.5C 132.833,335.5 138.167,335.5 143.5,335.5C 143.5,330.167 143.5,324.833 143.5,319.5C 138.167,319.5 132.833,319.5 127.5,319.5 Z"/></g>
<g><path style="opacity:1" fill="#000000" d="M 335.5,367.5 C 340.833,367.5 346.167,367.5 351.5,367.5C 351.5,372.833 351.5,378.167 351.5,383.5C 346.167,383.5 340.833,383.5 335.5,383.5C 335.5,378.167 335.5,372.833 335.5,367.5 Z"/></g>
<g><path style="opacity:1" fill="#000000" d="M 335.5,439.5 C 340.833,439.5 346.167,439.5 351.5,439.5C 351.5,444.833 351.5,450.167 351.5,455.5C 346.167,455.5 340.833,455.5 335.5,455.5C 335.5,450.167 335.5,444.833 335.5,439.5 Z"/></g>
</svg>
