<?xml version="1.0" standalone="no"?>
<!DOCTYPE svg PUBLIC "-//W3C//DTD SVG 20010904//EN"
 "http://www.w3.org/TR/2001/REC-SVG-20010904/DTD/svg10.dtd">
<svg version="1.0" xmlns="http://www.w3.org/2000/svg"
 width="512.000000pt" height="512.000000pt" viewBox="0 0 512.000000 512.000000"
 preserveAspectRatio="xMidYMid meet">

<g transform="translate(0.000000,512.000000) scale(0.100000,-0.100000)"
fill="#000000" stroke="none">
<path d="M2330 5110 c-494 -48 -950 -230 -1350 -538 -195 -150 -448 -432 -594
-662 -63 -99 -186 -351 -230 -471 -49 -134 -102 -340 -128 -499 -31 -195 -31
-565 0 -760 45 -276 116 -498 237 -745 132 -269 269 -460 489 -681 221 -220
412 -357 681 -489 247 -121 469 -192 745 -237 195 -31 565 -31 760 0 276 45
498 116 745 237 269 132 460 269 681 489 220 221 357 412 489 681 88 179 132
296 180 476 63 240 78 371 78 649 0 278 -15 409 -78 649 -48 180 -92 297 -180
476 -132 269 -269 460 -489 681 -221 220 -412 357 -681 489 -246 121 -474 193
-740 235 -147 23 -475 34 -615 20z m520 -386 c369 -48 708 -187 1020 -418 122
-90 346 -314 436 -436 294 -398 434 -820 434 -1310 0 -490 -140 -912 -434
-1310 -90 -122 -314 -346 -436 -436 -398 -294 -820 -434 -1310 -434 -490 0
-912 140 -1310 434 -122 90 -346 314 -436 436 -294 398 -434 820 -434 1310 0
490 140 912 434 1310 138 187 394 421 600 549 171 107 413 209 615 261 248 63
551 79 821 44z"/>
<path d="M1890 3113 c-180 -27 -353 -148 -433 -301 -53 -101 -71 -172 -70
-282 2 -207 105 -397 276 -509 94 -61 164 -83 283 -89 125 -6 223 14 325 65
116 58 240 199 198 224 -8 4 -70 42 -139 83 l-125 74 -17 -33 c-58 -111 -225
-146 -336 -72 -159 107 -161 391 -4 501 35 25 55 31 112 34 114 7 194 -33 245
-123 10 -16 23 -9 133 70 67 48 125 91 128 96 8 14 -50 92 -102 138 -113 99
-307 150 -474 124z"/>
<path d="M2938 2968 l-33 -143 -123 -3 -122 -3 0 -119 0 -120 91 0 91 0 -7
-36 c-16 -87 -11 -84 -140 -84 l-115 0 0 -125 0 -125 85 0 c53 0 85 -4 85 -11
0 -5 -13 -64 -30 -129 -16 -65 -30 -121 -30 -124 0 -3 60 -6 134 -6 l134 0 33
135 33 135 33 0 c18 0 33 -5 33 -11 0 -6 -11 -54 -24 -107 -13 -53 -27 -109
-30 -124 l-6 -28 134 0 135 0 10 38 c6 20 20 81 32 135 l22 97 134 0 133 0 0
125 0 125 -100 0 c-55 0 -100 4 -100 9 0 5 5 32 12 60 l11 51 129 0 128 0 0
120 0 120 -99 0 -99 0 34 133 c18 72 34 138 34 145 0 9 -33 12 -133 12 l-133
0 -35 -142 -35 -143 -36 -3 -36 -3 34 133 c18 73 34 139 34 146 0 9 -33 12
-134 12 l-134 0 -34 -142z m237 -424 c-13 -69 -22 -84 -55 -84 -34 0 -36 8
-19 76 11 42 13 44 46 44 35 0 35 0 28 -36z"/>
</g>
</svg>
