<?xml version="1.0" standalone="no"?>
<!DOCTYPE svg PUBLIC "-//W3C//DTD SVG 20010904//EN"
 "http://www.w3.org/TR/2001/REC-SVG-20010904/DTD/svg10.dtd">
<svg version="1.0" xmlns="http://www.w3.org/2000/svg"
 width="512.000000pt" height="512.000000pt" viewBox="0 0 512.000000 512.000000"
 preserveAspectRatio="xMidYMid meet">

<g transform="translate(0.000000,512.000000) scale(0.100000,-0.100000)"
fill="#000000" stroke="none">
<path d="M885 4865 l-25 -24 0 -1366 0 -1365 -98 0 c-123 0 -173 -22 -209 -90
l-23 -43 0 -564 c0 -617 -1 -605 59 -656 42 -35 89 -47 189 -47 l82 0 0 -215
c0 -216 0 -216 25 -240 l24 -25 1651 0 1651 0 24 25 c25 24 25 24 25 240 l0
215 83 0 c99 0 146 12 188 47 60 51 59 39 59 656 l0 564 -23 43 c-36 68 -86
90 -209 90 l-98 0 0 928 0 927 -469 463 -470 462 -1206 0 -1206 0 -24 -25z
m2325 -554 l0 -420 26 -20 c26 -20 37 -21 445 -21 l419 0 0 -870 0 -870 -1540
0 -1540 0 0 1310 0 1310 1095 0 1095 0 0 -419z m705 -230 l69 -71 -307 0 -307
0 0 301 0 301 238 -230 c130 -127 268 -262 307 -301z m513 -2668 l-3 -538
-1865 0 -1865 0 -3 538 -2 537 1870 0 1870 0 -2 -537z m-328 -863 l0 -160
-1540 0 -1540 0 0 160 0 160 1540 0 1540 0 0 -160z"/>
<path d="M2651 3443 c-15 -13 -65 -143 -166 -436 -80 -230 -145 -428 -145
-438 0 -11 11 -31 25 -44 31 -32 78 -33 108 -2 15 15 70 158 166 439 131 381
143 420 132 447 -20 48 -81 65 -120 34z"/>
<path d="M1724 3214 c-95 -98 -178 -191 -185 -206 -6 -15 -9 -38 -5 -50 3 -13
85 -105 183 -206 192 -197 203 -204 257 -161 20 15 26 29 26 57 0 34 -12 50
-140 184 l-140 146 140 146 c130 136 140 149 140 185 0 44 -21 68 -70 77 -32
7 -37 3 -206 -172z"/>
<path d="M3146 3369 c-20 -16 -26 -29 -26 -60 0 -36 9 -48 140 -185 l140 -146
-140 -146 c-129 -134 -140 -149 -140 -183 0 -29 6 -42 26 -58 54 -43 65 -36
257 161 98 101 180 193 183 206 4 12 1 35 -5 50 -7 15 -89 107 -184 205 -186
191 -197 198 -251 156z"/>
<path d="M2000 1815 c-32 -34 -30 -83 5 -112 24 -21 36 -23 146 -23 l119 0 0
-234 0 -234 -26 -31 c-64 -77 -194 -29 -194 72 0 68 -87 101 -137 51 -23 -23
-25 -31 -20 -79 15 -144 151 -257 293 -242 105 11 209 93 233 185 6 20 11 169
11 330 2 376 24 342 -225 342 -180 0 -182 0 -205 -25z"/>
<path d="M2816 1825 c-160 -57 -217 -260 -113 -397 46 -59 116 -90 223 -97 70
-5 97 -11 112 -25 46 -40 35 -124 -19 -151 -21 -11 -66 -15 -174 -15 -142 0
-147 -1 -170 -25 -33 -32 -33 -78 0 -111 l26 -26 172 4 c191 4 219 11 283 80
53 55 68 95 69 173 0 81 -20 129 -73 183 -49 48 -93 64 -201 72 -86 6 -96 9
-117 34 -34 39 -32 89 5 127 l29 29 146 0 c155 0 187 7 205 47 17 37 13 62
-14 88 -24 25 -27 25 -187 25 -112 -1 -175 -5 -202 -15z"/>
</g>
</svg>
