<svg version="1.1" id="Layer_1" xmlns="http://www.w3.org/2000/svg" xmlns:xlink="http://www.w3.org/1999/xlink" x="0px" y="0px"
	 width="100%" viewBox="0 0 512 512" enable-background="new 0 0 512 512" xml:space="preserve">
<path fill="#000000" opacity="1.000000" stroke="none" 
	d="
M1.000000,440.000000 
	C1.000000,317.977356 1.000000,195.954727 1.275353,73.272194 
	C2.222891,71.108688 3.056581,69.655373 3.542927,68.093880 
	C10.358147,46.212502 34.649166,30.392698 56.992966,30.449499 
	C190.962234,30.790068 324.932770,30.627228 458.902893,30.611906 
	C473.102875,30.610281 485.028503,36.356361 495.512787,45.323509 
	C504.943024,53.389130 509.837006,64.252266 513.000000,76.000000 
	C513.000000,196.355972 513.000000,316.711945 512.943604,437.893127 
	C511.697174,442.157227 510.623901,445.641937 509.297699,449.027588 
	C501.791718,468.189850 480.366913,483.383423 460.710846,483.386414 
	C325.101990,483.406921 189.493011,483.480255 53.884430,483.288116 
	C36.962376,483.264160 23.366545,475.341003 12.606133,462.362000 
	C7.097684,455.717834 4.309474,447.742462 1.000000,440.000000 
M495.618042,417.420746 
	C495.618439,336.590454 495.621033,255.760147 495.615234,174.929855 
	C495.614746,168.030212 495.050110,167.469299 488.312775,167.402084 
	C486.146393,167.380463 483.979645,167.395447 481.813049,167.395401 
	C329.818237,167.392349 177.823441,167.389664 25.828648,167.386032 
	C18.418083,167.385864 18.377180,167.413589 18.376921,174.980270 
	C18.374302,251.644333 18.348814,328.308411 18.413773,404.972412 
	C18.420662,413.102753 18.203987,421.212463 19.208149,429.376648 
	C20.710215,441.588989 26.406122,450.866028 36.138329,458.043732 
	C44.492516,464.205078 54.229588,465.416809 64.057526,465.535248 
	C86.386864,465.804321 108.721649,465.622925 131.054214,465.623322 
	C236.883942,465.625214 342.713684,465.652039 448.543365,465.586945 
	C458.574646,465.580750 468.446136,464.402618 477.146576,458.606567 
	C491.582092,448.989960 495.699982,434.663422 495.618042,417.420746 
M18.376799,102.505608 
	C18.376116,115.168343 18.373137,127.831070 18.375574,140.493805 
	C18.377138,148.623550 18.380714,148.628464 26.754885,148.628571 
	C179.542938,148.630554 332.330994,148.631332 485.119049,148.631302 
	C486.785187,148.631302 488.451508,148.596970 490.117401,148.614182 
	C493.768494,148.651886 495.733948,147.072052 495.623840,143.209534 
	C495.069183,123.756149 496.215149,104.304901 494.829285,84.826088 
	C493.474060,65.777817 475.421509,49.238552 456.030029,49.269150 
	C323.236389,49.478714 190.442245,49.361805 57.648304,49.428600 
	C42.098415,49.436424 30.803192,56.951973 23.409428,70.408768 
	C18.065157,80.135452 18.375761,90.868599 18.376799,102.505608 
z"/>
<path fill="#000000" opacity="1.000000" stroke="none" 
	d="
M259.581421,327.338501 
	C255.631119,346.240814 251.783783,364.730560 247.916031,383.216064 
	C247.476456,385.316925 247.124191,387.469086 246.380142,389.466583 
	C244.706146,393.960571 240.548752,396.099640 235.520523,395.303802 
	C231.246521,394.627289 228.659531,391.389801 228.667252,386.331299 
	C228.680298,377.774078 231.517471,369.690491 233.222122,361.436493 
	C242.574799,316.150146 252.167084,270.913269 261.636627,225.650955 
	C263.231628,218.027145 266.150360,215.301315 272.794434,215.634094 
	C277.208954,215.855194 280.113495,218.750519 280.351746,223.190918 
	C280.813629,231.799393 278.024261,239.899414 276.313507,248.148849 
	C270.863922,274.427277 265.236847,300.668854 259.581421,327.338501 
z"/>
<path fill="#000000" opacity="1.000000" stroke="none" 
	d="
M211.139313,262.599731 
	C202.344162,272.478516 191.860458,279.901550 182.285660,288.349030 
	C176.938675,293.066437 171.416428,297.584747 166.004471,302.229279 
	C165.140045,302.971130 164.201370,303.767456 164.348007,305.682709 
	C173.353836,313.391479 182.638977,321.372101 191.962616,329.307495 
	C197.268005,333.822906 202.659103,338.237549 207.969574,342.747101 
	C212.827301,346.872223 213.722763,353.001556 210.183838,357.370880 
	C207.005295,361.295258 200.517105,361.629303 195.850677,357.755890 
	C186.527908,350.017456 177.342850,342.112762 168.124878,334.248657 
	C160.044006,327.354675 152.079529,320.321320 143.901688,313.544983 
	C139.055298,309.529205 136.389359,302.524597 142.833008,297.005524 
	C153.039215,288.263733 163.219147,279.491241 173.422089,270.745605 
	C179.343811,265.669708 185.266937,260.595001 191.235336,255.574326 
	C193.264511,253.867340 195.358505,252.214920 197.556335,250.735840 
	C201.395203,248.152405 205.365692,247.897461 209.038757,250.998215 
	C212.685638,254.076874 213.296158,257.942749 211.139313,262.599731 
z"/>
<path fill="#000000" opacity="1.000000" stroke="none" 
	d="
M335.318634,318.289551 
	C340.312256,313.910828 345.009888,309.731262 350.144684,305.162720 
	C347.557037,300.443542 342.634521,298.009552 338.843719,294.564362 
	C327.677521,284.416260 315.481812,275.437256 304.721558,264.814697 
	C301.733154,261.864563 300.661163,258.353119 302.380859,254.364334 
	C304.002533,250.602982 307.199890,248.727493 311.088409,248.810532 
	C315.087250,248.895905 318.191956,251.561798 321.079712,254.003265 
	C337.158478,267.597015 353.071075,281.387512 369.163513,294.964874 
	C376.897858,301.490387 376.794006,307.924103 368.812775,314.522797 
	C352.073425,328.362488 335.741272,342.695190 319.267151,356.854858 
	C313.968750,361.408997 307.221100,361.676666 303.768707,357.361938 
	C299.959534,352.601196 301.596863,346.361755 307.228912,341.803955 
	C316.627625,334.197968 325.771484,326.277039 335.318634,318.289551 
z"/>
<path fill="#000000" opacity="1.000000" stroke="none" 
	d="
M172.147766,92.383194 
	C174.376602,109.648483 167.803711,121.253716 153.666519,125.703857 
	C142.318222,129.276093 129.809433,124.864967 123.295525,116.372177 
	C116.543793,107.569313 115.639122,93.522209 121.783203,84.482857 
	C128.151596,75.113472 137.326096,70.542236 148.729736,71.767639 
	C160.223419,73.002708 169.007660,80.915398 172.147766,92.383194 
M142.680588,91.295448 
	C137.628006,94.281464 135.763260,98.548393 137.687378,102.721024 
	C139.479843,106.608208 144.185516,108.648346 148.120483,107.244331 
	C152.350632,105.734985 154.638733,101.598793 153.585159,97.365860 
	C152.505478,93.028023 148.317154,90.429619 142.680588,91.295448 
z"/>
<path fill="#000000" opacity="1.000000" stroke="none" 
	d="
M215.895874,74.504570 
	C230.908981,68.251129 246.673569,75.081429 252.406311,87.028648 
	C260.104401,103.071693 251.322510,122.790497 233.936707,126.503807 
	C217.530136,130.007980 200.556030,119.855774 200.007416,99.829079 
	C199.705353,88.802986 204.729263,79.577774 215.895874,74.504570 
M225.461380,107.649582 
	C229.542709,108.363152 232.900925,107.474442 235.117294,103.605362 
	C237.019516,100.284729 236.364746,97.321602 234.197464,94.474342 
	C231.815445,91.345001 228.646088,90.376900 224.977554,91.555389 
	C221.693695,92.610306 219.905930,95.132912 219.411438,98.491615 
	C218.761246,102.907951 220.998062,105.688164 225.461380,107.649582 
z"/>
<path fill="#000000" opacity="1.000000" stroke="none" 
	d="
M89.138748,89.416183 
	C94.081215,105.660240 86.628349,120.954712 71.087624,125.432037 
	C60.324848,128.532837 50.115631,126.347420 42.521004,117.548492 
	C35.092194,108.941681 33.382027,98.902206 37.843002,88.281258 
	C42.321030,77.619698 50.525116,71.977661 62.142632,71.630180 
	C75.057098,71.243912 83.978233,77.162552 89.138748,89.416183 
M54.439705,99.341820 
	C56.245266,105.114578 59.552887,108.012695 64.092728,107.556595 
	C68.327271,107.131165 70.472404,104.142296 71.460777,100.464119 
	C72.549301,96.413239 69.172501,91.505363 65.091293,90.576057 
	C60.337936,89.493698 56.265770,92.562965 54.439705,99.341820 
z"/>
</svg>