<?xml version="1.0" encoding="UTF-8"?>
<!DOCTYPE svg PUBLIC "-//W3C//DTD SVG 1.1//EN" "http://www.w3.org/Graphics/SVG/1.1/DTD/svg11.dtd">
<svg xmlns="http://www.w3.org/2000/svg" version="1.1" width="512px" height="512px" style="shape-rendering:geometricPrecision; text-rendering:geometricPrecision; image-rendering:optimizeQuality; fill-rule:evenodd; clip-rule:evenodd" xmlns:xlink="http://www.w3.org/1999/xlink">
<g><path style="opacity:0.967" fill="#000000" d="M 35.5,151.5 C 70.9198,151.013 106.253,151.513 141.5,153C 157.667,169.167 173.833,185.333 190,201.5C 191.468,216.737 191.968,232.07 191.5,247.5C 207.847,247.833 224.18,247.499 240.5,246.5C 244.288,238.212 250.621,233.046 259.5,231C 280.528,209.638 301.861,188.638 323.5,168C 359.838,167.833 396.171,167.333 432.5,166.5C 441.113,151.131 453.446,147.297 469.5,155C 484.167,168.667 484.167,182.333 469.5,196C 453.446,203.703 441.113,199.869 432.5,184.5C 398.838,183.333 365.172,183.167 331.5,184C 313.986,201.347 296.653,218.847 279.5,236.5C 282.326,239.484 284.659,242.817 286.5,246.5C 303.167,247.833 319.833,247.833 336.5,246.5C 345.727,230.928 358.394,227.428 374.5,236C 378.016,238.871 380.683,242.371 382.5,246.5C 399.167,247.833 415.833,247.833 432.5,246.5C 441.113,231.131 453.446,227.297 469.5,235C 480.667,244.832 482.833,256.332 476,269.5C 466.209,280.243 454.709,282.41 441.5,276C 437.546,272.883 434.546,269.05 432.5,264.5C 415.833,263.167 399.167,263.167 382.5,264.5C 380.659,268.183 378.326,271.516 375.5,274.5C 392.653,292.153 409.986,309.653 427.5,327C 429.259,327.798 430.926,327.631 432.5,326.5C 441.113,311.131 453.446,307.297 469.5,315C 484.167,328.667 484.167,342.333 469.5,356C 453.446,363.703 441.113,359.869 432.5,344.5C 427.868,343.672 423.202,343.172 418.5,343C 397.5,322 376.5,301 355.5,280C 346.629,277.964 340.296,272.797 336.5,264.5C 319.833,263.167 303.167,263.167 286.5,264.5C 278.55,278.652 266.884,282.819 251.5,277C 246.589,273.922 242.922,269.756 240.5,264.5C 224.18,263.501 207.847,263.167 191.5,263.5C 191.667,294.168 191.5,324.835 191,355.5C 190.626,356.416 190.126,357.25 189.5,358C 163.585,359.158 137.585,359.658 111.5,359.5C 85.415,359.658 59.415,359.158 33.5,358C 32.8742,357.25 32.3742,356.416 32,355.5C 31.3333,288.833 31.3333,222.167 32,155.5C 32.6897,153.65 33.8564,152.316 35.5,151.5 Z M 47.5,167.5 C 74.1667,167.5 100.833,167.5 127.5,167.5C 127.032,182.93 127.532,198.263 129,213.5C 129.75,214.126 130.584,214.626 131.5,215C 146.163,215.5 160.83,215.667 175.5,215.5C 175.5,258.167 175.5,300.833 175.5,343.5C 132.833,343.5 90.1667,343.5 47.5,343.5C 47.5,284.833 47.5,226.167 47.5,167.5 Z M 452.5,168.5 C 461.85,168.365 464.517,172.532 460.5,181C 451.956,184.322 448.123,181.489 449,172.5C 449.69,170.65 450.856,169.316 452.5,168.5 Z M 143.5,180.5 C 149.965,186.464 156.298,192.631 162.5,199C 156.175,199.5 149.842,199.666 143.5,199.5C 143.5,193.167 143.5,186.833 143.5,180.5 Z M 260.5,248.5 C 269.85,248.365 272.517,252.532 268.5,261C 259.956,264.322 256.123,261.489 257,252.5C 257.69,250.65 258.856,249.316 260.5,248.5 Z M 356.5,248.5 C 365.85,248.365 368.517,252.532 364.5,261C 355.956,264.322 352.123,261.489 353,252.5C 353.69,250.65 354.856,249.316 356.5,248.5 Z M 452.5,248.5 C 461.85,248.365 464.517,252.532 460.5,261C 451.956,264.322 448.123,261.489 449,252.5C 449.69,250.65 450.856,249.316 452.5,248.5 Z M 452.5,328.5 C 461.85,328.365 464.517,332.532 460.5,341C 451.956,344.322 448.123,341.489 449,332.5C 449.69,330.65 450.856,329.316 452.5,328.5 Z"/></g>
<g><path style="opacity:0.939" fill="#000000" d="M 89.5,239.5 C 101.74,237.233 105.907,241.899 102,253.5C 100.103,255.016 97.9363,255.683 95.5,255.5C 96.7319,264.193 95.0652,272.193 90.5,279.5C 95.0652,286.807 96.7319,294.807 95.5,303.5C 98.9612,303.146 101.461,304.479 103,307.5C 105.259,315.355 102.425,319.355 94.5,319.5C 87.3704,319.517 82.537,316.184 80,309.5C 79.6667,304.833 79.3333,300.167 79,295.5C 78.5291,293.754 77.8624,292.087 77,290.5C 73.3261,288.622 69.4927,287.122 65.5,286C 62.8333,281.667 62.8333,277.333 65.5,273C 69.4927,271.878 73.3261,270.378 77,268.5C 77.8624,266.913 78.5291,265.246 79,263.5C 76.8666,252.786 80.3666,244.786 89.5,239.5 Z"/></g>
<g><path style="opacity:0.94" fill="#000000" d="M 123.5,239.5 C 139.661,239.177 146.494,247.177 144,263.5C 144.471,265.246 145.138,266.913 146,268.5C 149.674,270.378 153.507,271.878 157.5,273C 160.167,277.333 160.167,281.667 157.5,286C 153.507,287.122 149.674,288.622 146,290.5C 145.138,292.087 144.471,293.754 144,295.5C 143.667,300.167 143.333,304.833 143,309.5C 138.215,319.227 130.882,321.894 121,317.5C 118.891,313.219 119.058,309.052 121.5,305C 123.345,303.872 125.345,303.372 127.5,303.5C 126.268,294.807 127.935,286.807 132.5,279.5C 127.935,272.193 126.268,264.193 127.5,255.5C 120.274,254.748 117.774,250.748 120,243.5C 120.69,241.65 121.856,240.316 123.5,239.5 Z"/></g>
</svg>
