<?xml version="1.0" encoding="UTF-8"?>
<!DOCTYPE svg PUBLIC "-//W3C//DTD SVG 1.1//EN" "http://www.w3.org/Graphics/SVG/1.1/DTD/svg11.dtd">
<svg xmlns="http://www.w3.org/2000/svg" version="1.1" width="512px" height="512px" style="shape-rendering:geometricPrecision; text-rendering:geometricPrecision; image-rendering:optimizeQuality; fill-rule:evenodd; clip-rule:evenodd" xmlns:xlink="http://www.w3.org/1999/xlink">
<g><path style="opacity:0.963" fill="#000000" d="M 244.5,0.5 C 247.518,0.335374 250.518,0.50204 253.5,1C 255.333,1.5 256.5,2.66667 257,4.5C 257.667,24.1667 257.667,43.8333 257,63.5C 252.48,69.7041 247.48,70.0374 242,64.5C 241.333,44.1667 241.333,23.8333 242,3.5C 243.045,2.62656 243.878,1.62656 244.5,0.5 Z"/></g>
<g><path style="opacity:0.918" fill="#000000" d="M 390.5,58.5 C 399.214,59.5953 402.048,64.262 399,72.5C 386.167,85.3333 373.333,98.1667 360.5,111C 350.136,113.597 345.969,109.764 348,99.5C 361.782,85.2136 375.949,71.5469 390.5,58.5 Z"/></g>
<g><path style="opacity:0.941" fill="#000000" d="M 178.5,78.5 C 204.972,77.5062 222.138,89.5062 230,114.5C 231.646,193.807 231.98,273.14 231,352.5C 230.189,361.604 227.022,369.771 221.5,377C 228.158,377.5 234.825,377.666 241.5,377.5C 241.333,281.833 241.5,186.166 242,90.5C 245.28,82.7118 251.114,78.7118 259.5,78.5C 314.459,85.2225 352.293,114.223 373,165.5C 387.027,211.341 379.694,253.341 351,291.5C 342.054,300.446 333.054,309.446 324,318.5C 310.3,335.76 302.8,355.427 301.5,377.5C 316.323,378.652 325.823,386.318 330,400.5C 331.945,410.658 329.445,419.491 322.5,427C 330.965,436.59 332.798,447.424 328,459.5C 320.594,472.451 309.427,477.785 294.5,475.5C 293.571,492.918 284.904,504.418 268.5,510C 242.833,510.667 217.167,510.667 191.5,510C 174.881,504.542 166.547,493.042 166.5,475.5C 139.609,476.779 127.776,464.112 131,437.5C 132.343,433.49 134.509,429.99 137.5,427C 125.922,411.194 127.256,396.528 141.5,383C 144.329,381.753 146.995,380.253 149.5,378.5C 146.081,374.669 143.414,370.335 141.5,365.5C 102.598,361.77 83.7643,340.436 85,301.5C 86.0569,298.451 86.2236,295.451 85.5,292.5C 63.6145,280.578 52.2812,262.078 51.5,237C 51.9987,211.481 63.332,192.648 85.5,180.5C 85.8333,179.833 86.1667,179.167 86.5,178.5C 80.1616,148.013 90.8283,125.847 118.5,112C 126.003,109.666 133.669,108.166 141.5,107.5C 148.479,90.8606 160.812,81.1939 178.5,78.5 Z M 179.5,95.5 C 192.948,94.4751 203.448,99.4751 211,110.5C 212.399,113.363 213.399,116.363 214,119.5C 214.667,197.5 214.667,275.5 214,353.5C 208.901,371.982 196.734,379.815 177.5,377C 159.46,370.419 152.96,357.919 158,339.5C 160.559,336.469 163.726,334.302 167.5,333C 172.531,325.644 170.864,320.477 162.5,317.5C 147.513,321.828 139.513,331.828 138.5,347.5C 115.852,345.519 103.519,333.186 101.5,310.5C 102.965,290.198 113.632,277.698 133.5,273C 138.281,269.073 139.115,264.573 136,259.5C 130.968,257.013 125.801,256.846 120.5,259C 110.244,263.263 101.744,269.763 95,278.5C 72.4688,265.757 64.4688,246.757 71,221.5C 78.3557,201.805 92.5224,191.972 113.5,192C 116.637,192.601 119.637,193.601 122.5,195C 126.167,198 129.833,201 133.5,204C 142.118,205.715 145.951,202.215 145,193.5C 134.496,179.728 120.663,173.394 103.5,174.5C 98.5379,154.255 105.205,139.088 123.5,129C 135.511,123.862 147.178,124.529 158.5,131C 163.956,135.613 168.956,140.613 173.5,146C 180.069,147.724 184.069,145.391 185.5,139C 182.89,130.04 177.557,123.04 169.5,118C 165.993,115.746 162.327,113.746 158.5,112C 163.084,103.231 170.084,97.7305 179.5,95.5 Z M 258.5,95.5 C 298.193,99.2506 328.027,118.251 348,152.5C 369.842,194.714 367.842,235.714 342,275.5C 331.697,286.804 321.03,297.804 310,308.5C 294.225,328.734 285.725,351.734 284.5,377.5C 275.5,377.5 266.5,377.5 257.5,377.5C 257.169,283.429 257.503,189.429 258.5,95.5 Z M 155.5,394.5 C 205.168,394.333 254.834,394.5 304.5,395C 314.137,399.057 316.304,405.557 311,414.5C 309.2,416.317 307.034,417.484 304.5,418C 254.833,418.667 205.167,418.667 155.5,418C 147.158,413.974 144.992,407.807 149,399.5C 150.965,397.45 153.132,395.783 155.5,394.5 Z M 154.5,435.5 C 205.168,435.333 255.834,435.5 306.5,436C 313.489,440.128 315.322,445.961 312,453.5C 309.658,456.754 306.491,458.588 302.5,459C 254.5,459.667 206.5,459.667 158.5,459C 148.475,457.119 144.975,451.286 148,441.5C 149.914,439.144 152.081,437.144 154.5,435.5 Z M 182.5,475.5 C 214.167,475.5 245.833,475.5 277.5,475.5C 277.28,483.544 273.613,489.377 266.5,493C 254.554,494.125 242.554,494.625 230.5,494.5C 218.446,494.625 206.446,494.125 194.5,493C 186.906,489.648 182.906,483.815 182.5,475.5 Z"/></g>
<g><path style="opacity:0.919" fill="#000000" d="M 276.5,114.5 C 279.187,114.336 281.854,114.503 284.5,115C 324.708,131.904 346.374,162.237 349.5,206C 350.098,212.399 347.265,216.232 341,217.5C 338.113,217.097 335.779,215.764 334,213.5C 331.831,171.792 311.498,143.125 273,127.5C 270.635,122.11 271.801,117.776 276.5,114.5 Z"/></g>
<g><path style="opacity:0.915" fill="#000000" d="M 396.5,201.5 C 415.836,201.333 435.17,201.5 454.5,202C 461.408,207.792 461.074,213.126 453.5,218C 434.5,218.667 415.5,218.667 396.5,218C 392.762,216.601 391.096,213.934 391.5,210C 391.308,206.035 392.975,203.201 396.5,201.5 Z"/></g>
<g><path style="opacity:0.919" fill="#000000" d="M 352.5,307.5 C 355.32,307.248 357.986,307.748 360.5,309C 373.333,321.833 386.167,334.667 399,347.5C 401.6,358.565 397.433,362.398 386.5,359C 373.667,346.167 360.833,333.333 348,320.5C 345.963,314.992 347.463,310.659 352.5,307.5 Z"/></g>
</svg>
