<?xml version="1.0" standalone="no"?>
<!DOCTYPE svg PUBLIC "-//W3C//DTD SVG 20010904//EN"
 "http://www.w3.org/TR/2001/REC-SVG-20010904/DTD/svg10.dtd">
<svg version="1.0" xmlns="http://www.w3.org/2000/svg"
 width="512.000000pt" height="512.000000pt" viewBox="0 0 512.000000 512.000000"
 preserveAspectRatio="xMidYMid meet">

<g transform="translate(0.000000,512.000000) scale(0.100000,-0.100000)"
fill="#000000" stroke="none">
<path d="M830 5104 c-42 -18 -86 -58 -108 -99 -15 -27 -17 -109 -20 -871 l-3
-842 -92 -4 c-112 -5 -179 -32 -235 -92 -81 -88 -77 -39 -77 -946 0 -801 0
-805 21 -851 54 -116 140 -169 291 -177 l92 -5 3 -536 c3 -588 1 -562 65 -623
65 -62 -61 -58 1793 -58 1854 0 1728 -4 1793 58 64 61 62 35 65 623 l3 536 92
5 c151 8 237 61 291 177 21 46 21 50 21 851 0 907 4 858 -77 946 -56 60 -123
87 -235 92 l-93 4 -1 302 c-1 165 -4 312 -8 326 -8 30 -994 1160 -1033 1184
-24 15 -138 16 -1270 16 -1088 -1 -1247 -3 -1278 -16z m2400 -714 l0 -530 29
-32 29 -33 466 -3 466 -3 0 -249 0 -250 -1660 0 -1660 0 0 815 0 815 1165 0
1165 0 0 -530z m-1830 -1295 c69 -6 225 -49 235 -64 3 -5 -11 -68 -31 -139
l-36 -130 -62 23 c-132 49 -306 58 -383 18 -47 -24 -83 -76 -83 -117 0 -75 57
-119 259 -202 196 -80 308 -161 358 -258 63 -121 54 -292 -21 -420 -54 -92
-171 -170 -315 -208 -106 -28 -310 -28 -436 0 -74 17 -206 58 -205 65 2 15 69
270 72 272 2 2 23 -5 48 -16 119 -53 309 -81 411 -60 148 31 196 172 89 264
-23 19 -82 51 -133 71 -191 77 -279 126 -343 190 -70 71 -101 130 -117 220
-34 202 96 390 323 466 68 23 198 40 265 34 22 -2 69 -6 105 -9z m1370 -11
c325 -73 538 -391 516 -774 -12 -218 -79 -386 -205 -510 -42 -42 -91 -82 -108
-89 -18 -7 -33 -17 -33 -21 0 -7 204 -60 291 -75 66 -12 66 -12 19 -141 -24
-66 -46 -122 -49 -126 -8 -9 -283 82 -503 166 -80 31 -160 56 -177 56 -69 0
-190 33 -280 77 -176 85 -296 237 -353 448 -17 65 -21 108 -21 230 0 179 17
258 89 404 143 291 466 432 814 355z m1080 -604 l0 -600 295 0 295 0 0 -140 0
-140 -465 0 -465 0 0 740 0 740 170 0 170 0 0 -600z m370 -1740 l0 -480 -1660
0 -1660 0 0 480 0 480 1660 0 1660 0 0 -480z"/>
<path d="M2505 2831 c-142 -37 -238 -163 -276 -359 -18 -95 -7 -281 21 -362
59 -167 161 -258 302 -268 160 -11 281 81 349 268 21 58 23 83 24 225 0 132
-3 170 -19 215 -46 134 -115 223 -203 262 -51 22 -150 32 -198 19z"/>
</g>
</svg>
