<?xml version="1.0" encoding="UTF-8"?>
<!DOCTYPE svg PUBLIC "-//W3C//DTD SVG 1.1//EN" "http://www.w3.org/Graphics/SVG/1.1/DTD/svg11.dtd">
<svg xmlns="http://www.w3.org/2000/svg" version="1.1" width="512px" height="512px" style="shape-rendering:geometricPrecision; text-rendering:geometricPrecision; image-rendering:optimizeQuality; fill-rule:evenodd; clip-rule:evenodd" xmlns:xlink="http://www.w3.org/1999/xlink">
<g><path style="opacity:0.985" fill="#000000" d="M 511.5,68.5 C 511.5,193.167 511.5,317.833 511.5,442.5C 505.122,469.042 488.455,484.875 461.5,490C 324.167,490.667 186.833,490.667 49.5,490C 22.5445,484.875 5.87785,469.042 -0.5,442.5C -0.5,317.833 -0.5,193.167 -0.5,68.5C 5.87785,41.9579 22.5445,26.1246 49.5,21C 186.833,20.3333 324.167,20.3333 461.5,21C 488.455,26.1246 505.122,41.9579 511.5,68.5 Z M 52.5,53.5 C 187.834,53.3333 323.167,53.5 458.5,54C 468.387,56.6775 474.887,62.8442 478,72.5C 479.205,80.1194 479.705,87.786 479.5,95.5C 330.167,95.5 180.833,95.5 31.5,95.5C 31.0913,86.6971 31.9246,78.0305 34,69.5C 38.1644,61.8345 44.3311,56.5012 52.5,53.5 Z M 31.5,127.5 C 180.833,127.5 330.167,127.5 479.5,127.5C 479.667,228.834 479.5,330.167 479,431.5C 477.719,444.449 470.886,452.949 458.5,457C 323.167,457.667 187.833,457.667 52.5,457C 40.0882,453.021 33.2549,444.521 32,431.5C 31.5,330.167 31.3333,228.834 31.5,127.5 Z"/></g>
<g><path style="opacity:0.974" fill="#000000" d="M 140.5,233.5 C 147.89,232.803 153.723,235.47 158,241.5C 165.333,254.833 172.667,268.167 180,281.5C 180.333,269.5 180.667,257.5 181,245.5C 183.536,237.887 188.869,233.887 197,233.5C 205.279,234.295 210.612,238.628 213,246.5C 213.667,280.833 213.667,315.167 213,349.5C 208.297,361.961 199.797,365.461 187.5,360C 186,358.5 184.5,357 183,355.5C 175.587,341.672 167.92,328.005 160,314.5C 159.667,327.167 159.333,339.833 159,352.5C 152.389,363.158 143.556,365.324 132.5,359C 131.213,357.59 130.046,356.09 129,354.5C 127.346,317.918 127.013,281.251 128,244.5C 130.513,238.813 134.68,235.146 140.5,233.5 Z"/></g>
<g><path style="opacity:0.964" fill="#000000" d="M 266.5,233.5 C 280.171,233.333 293.837,233.5 307.5,234C 317.788,238.073 321.621,245.573 319,256.5C 316.894,261.147 313.394,264.314 308.5,266C 295.072,266.036 281.739,266.703 268.5,268C 267.874,268.75 267.374,269.584 267,270.5C 266.501,274.152 266.335,277.818 266.5,281.5C 280.171,281.333 293.837,281.5 307.5,282C 317.788,286.073 321.621,293.573 319,304.5C 316.894,309.147 313.394,312.314 308.5,314C 294.504,314.5 280.504,314.667 266.5,314.5C 266.334,318.514 266.501,322.514 267,326.5C 267.833,327.333 268.667,328.167 269.5,329C 283.235,329.054 296.902,329.72 310.5,331C 318.717,335.947 321.55,343.114 319,352.5C 316.894,357.147 313.394,360.314 308.5,362C 293.833,362.667 279.167,362.667 264.5,362C 247.417,357.672 237.25,346.839 234,329.5C 233.833,319 233.667,308.5 233.5,298C 233.386,285.788 233.886,273.621 235,261.5C 240.076,245.916 250.576,236.583 266.5,233.5 Z"/></g>
<g><path style="opacity:0.964" fill="#000000" d="M 353.5,233.5 C 380.835,233.333 408.169,233.5 435.5,234C 445.788,238.073 449.621,245.573 447,256.5C 444.894,261.147 441.394,264.314 436.5,266C 427.84,266.5 419.173,266.666 410.5,266.5C 410.667,294.835 410.5,323.169 410,351.5C 404.361,362.691 395.861,365.525 384.5,360C 381.193,357.222 379.026,353.722 378,349.5C 377.5,321.835 377.333,294.169 377.5,266.5C 368.827,266.666 360.16,266.5 351.5,266C 341.281,261.058 338.115,253.225 342,242.5C 344.683,237.922 348.517,234.922 353.5,233.5 Z"/></g>
<g><path style="opacity:0.933" fill="#000000" d="M 75.5,329.5 C 90.8051,329.642 97.3051,337.308 95,352.5C 88.3889,363.158 79.5556,365.324 68.5,359C 63.7548,353.731 62.2548,347.564 64,340.5C 66.4373,335.226 70.2706,331.56 75.5,329.5 Z"/></g>
</svg>
